<svg id="Ebene_1" data-name="Ebene 1" xmlns="http://www.w3.org/2000/svg" viewBox="0 0 176.12 176.12"><defs><style>.cls-1,.cls-3,.cls-5{fill:#25383c;}.cls-2,.cls-4{fill:#b82327;}.cls-3{font-size:15.19px;font-family:Consolas-Bold, Consolas;}.cls-3,.cls-4{font-weight:700;}.cls-4{writing-mode:tb;text-orientation:upright;glyph-orientation-vertical:0deg;font-size:15.19px;font-family:MyriadPro-Bold, Myriad Pro;}.cls-5{font-size:15.73px;font-family:Consolas;}</style></defs><title>Logo-Farbe</title><circle class="cls-1" cx="88.06" cy="88.06" r="88.06"/><path class="cls-2" d="M25.79,25.79a88.06,88.06,0,0,0,0,124.54L150.33,25.79A88.06,88.06,0,0,0,25.79,25.79Z"/><g id="läufer"><path class="cls-2" d="M117.41,107.06a12.06,12.06,0,0,0-2.72-5.36.82.82,0,0,1-.19-.59,2.69,2.69,0,0,0-.09-1.46,7.36,7.36,0,0,0-1.57-3.49,5.29,5.29,0,0,0-3.45-1.11c-.7.09-3.45.13-4.3.14a.31.31,0,0,1-.31-.25l-.84-3.14a1.78,1.78,0,0,0,.59-1.62,5.89,5.89,0,0,0-.37-1.38s0,0,0-.07c-.08-.45-.95-4.55-4.89-3.43a4.18,4.18,0,0,0-3.17,5.31,6.87,6.87,0,0,0,.74,2.18,14.15,14.15,0,0,0,1.62,1.27l.67,2.68a.32.32,0,0,1-.19.38c-.24.09-.62.24-1.09.44-2,.84-5.5,2.62-6.09,4.76-.54,2,.28,6.38.15,7.28S92.93,112,93.32,113s2,4.72,2,4.72.88.71.89,1.09.86,3.7,1.75,4.12,2.85,3.76,3.49,3.44c.33-.17-.77-2.66-.87-3-.07-.18-.07-.27,0-.32a.41.41,0,0,0,.11-.39l-.51-1.81a5.53,5.53,0,0,0-.67-2c-.45-.55-1.62-.34-1.78-1.25s-.44-4.49-.79-5.46a20.1,20.1,0,0,0-1.63-3l1.21-2.85a30.31,30.31,0,0,1,1.61,3.95c.17.92,1.41,1.26,2.11,3.66a25.12,25.12,0,0,1,.54,3.6c.21,1.34,1.07,4.11,1.22,4.65a.41.41,0,0,1,0,.16l0,3.21a.7.7,0,0,0,.1.34c.36.59,1.71,2.78,2.68,4.15,1.13,1.61,3.63,2.63,3.71,2.89a25.62,25.62,0,0,0,.25,3.59,25.3,25.3,0,0,0,2.15,3.82,15.23,15.23,0,0,1,1.46,3.43c.28,1,1.78,2.87,2.42,4.32s0,2.79.16,3a5.81,5.81,0,0,1,.4,2.39c-.12.61-.48,4.08.25,4.93s1.89.43,2.51.25c0,0,.6,4.4,3.08,3.84s1.52-4,1.08-5c-.61-1.35-1.37-4.68-1.09-5.91s.54-4,.66-4.66c.25-1.52-1.36-5.49-1.59-6.29a10.84,10.84,0,0,1,.08-3.11,27,27,0,0,0-.19-4.37c-.22-1.1-.17-6-.44-7.26s-1.22-5.43-2.21-6.72c-1.47-1.94-3.27-7.63-3.47-8.27,0,0,0-.05,0,0,.78,1.5,3.79,2.3,4.47,1C119.43,110.24,117.56,108.15,117.41,107.06Zm-.89,33.7a32.3,32.3,0,0,1,.19,4.52.07.07,0,0,1-.14,0,27.05,27.05,0,0,1-1-3.72c-.08-.77-.38-3.23-.51-4.27a.08.08,0,0,1,.15-.05A20.64,20.64,0,0,1,116.52,140.76Z"/><path class="cls-2" d="M116.15,108.07a8.12,8.12,0,0,0-1.34-1.89,12.18,12.18,0,0,1-3.07-2.56c-.61-1-1.44-3.78-2.07-4.57a11.9,11.9,0,0,0-3.13-2.5c-.37,0-.09.38-.06.63s1.32,2,1.5,2.53-.9-.71-.91-.45a14.71,14.71,0,0,0,1.06,1.85c0,.14.77,2,.82,2.12s1.4,1.47,1.69,1.86,2,3.79,2.25,4.09,1.16,1.69,1.16,1.69Z"/><path class="cls-2" d="M96.86,89.42a.24.24,0,0,1,.26-.24,9.9,9.9,0,0,0,2.49,0,6.35,6.35,0,0,0,2.84-1.54c.52-.72,1.62,3.8,1.49,4.13s-.93,3.14-2,3.43-3.44-.86-3.56-1.17A26.2,26.2,0,0,1,97,90.5C96.9,90,96.88,89.66,96.86,89.42Z"/></g><text class="cls-3" transform="translate(20.64 80.76) rotate(-79.05)">S</text><text class="cls-3" transform="matrix(0.3, -0.95, 0.95, 0.3, 22.17, 72.8)">o</text><text class="cls-3" transform="translate(24.59 65.08) rotate(-65.96)">u</text><text class="cls-3" transform="matrix(0.51, -0.86, 0.86, 0.51, 27.86, 57.71)">r</text><text class="cls-3" transform="translate(31.96 50.73) rotate(-52.87)">c</text><text class="cls-3" transform="matrix(0.69, -0.72, 0.72, 0.69, 36.83, 44.28)">e</text><text class="cls-3" transform="matrix(0.77, -0.64, 0.64, 0.77, 42.41, 38.42)"> </text><text class="cls-3" transform="translate(48.62 33.25) rotate(-33.05)">C</text><text class="cls-3" transform="translate(55.39 28.83) rotate(-26.48)">o</text><text class="cls-3" transform="translate(62.64 25.2) rotate(-20)">d</text><text class="cls-3" transform="matrix(0.97, -0.23, 0.23, 0.97, 70.21, 22.43)">e</text><text class="cls-4" transform="translate(161.41 71.37)">OCR</text><text class="cls-5" transform="translate(40.17 89.98) rotate(-45)">01011111<tspan x="0" y="18.88">11001100</tspan></text></svg>